<svg xmlns="http://www.w3.org/2000/svg" xmlns:xlink="http://www.w3.org/1999/xlink" width="437.115" height="504.508" viewBox="0 0 437.115 504.508">
  <defs>
    <linearGradient id="linear-gradient" x1="0.492" y1="-0.67" x2="0.517" y2="3.311" gradientUnits="objectBoundingBox">
      <stop offset="0.01" stop-opacity="0"/>
      <stop offset="0.91" stop-opacity="0.851"/>
      <stop offset="0.93" stop-opacity="0.89"/>
      <stop offset="0.98"/>
    </linearGradient>
    <linearGradient id="linear-gradient-2" x1="1.068" y1="1.911" x2="1.132" y2="0.055" gradientUnits="objectBoundingBox">
      <stop offset="0.01" stop-opacity="0"/>
      <stop offset="0.93" stop-opacity="0.89"/>
      <stop offset="0.98"/>
    </linearGradient>
    <linearGradient id="linear-gradient-3" x1="2.171" y1="2.02" x2="3.171" y2="2.02" gradientUnits="objectBoundingBox">
      <stop offset="0" stop-color="#183866"/>
      <stop offset="1" stop-color="#1a7fc1"/>
    </linearGradient>
    <linearGradient id="linear-gradient-4" x1="2.542" y1="3.217" x2="2.626" y2="15.067" xlink:href="#linear-gradient-2"/>
    <linearGradient id="linear-gradient-5" x1="1.99" y1="3.468" x2="2.99" y2="3.468" gradientUnits="objectBoundingBox">
      <stop offset="0" stop-color="#ecc4d7"/>
      <stop offset="0.42" stop-color="#efd4d1"/>
      <stop offset="1" stop-color="#f2eac9"/>
    </linearGradient>
    <linearGradient id="linear-gradient-6" x1="4.678" y1="4.839" x2="8.53" y2="5.436" xlink:href="#linear-gradient-2"/>
    <linearGradient id="linear-gradient-7" x1="4.075" y1="3.676" x2="5.076" y2="3.676" xlink:href="#linear-gradient-5"/>
    <linearGradient id="linear-gradient-8" x1="0.484" y1="16.08" x2="0.847" y2="15.826" xlink:href="#linear-gradient-2"/>
    <linearGradient id="linear-gradient-9" x1="8.819" y1="14.646" x2="9.822" y2="14.646" xlink:href="#linear-gradient-5"/>
    <linearGradient id="linear-gradient-10" x1="9.812" y1="14.625" x2="10.815" y2="14.625" xlink:href="#linear-gradient-5"/>
    <linearGradient id="linear-gradient-11" x1="0.486" y1="0.502" x2="0.949" y2="0.916" xlink:href="#linear-gradient-2"/>
    <linearGradient id="linear-gradient-12" x1="0.368" y1="0.395" x2="0.858" y2="0.898" xlink:href="#linear-gradient-2"/>
    <linearGradient id="linear-gradient-13" x1="3.871" y1="2.833" x2="4.871" y2="2.833" xlink:href="#linear-gradient-5"/>
  </defs>
  <g id="Calling_Monochromatic" transform="translate(0.003 -0.003)">
    <path id="Path_85006" data-name="Path 85006" d="M57.488,408.727c-5.658-27.638,5.929-57.617-4.125-83.979C45.071,303.056,23.989,289,11.614,269.335c-15.848-25.189-15.433-59.619,1.033-84.41,17.415-26.186,48.5-39.3,72.962-59.129,15.949-12.941,29.256-28.956,45.739-41.2s37.845-20.551,57.6-14.867c12.705,3.649,23.115,12.561,35.27,17.637,27.435,11.471,58.529,2.069,88.2-.228A181.179,181.179,0,0,1,388.725,97.71c15.441,5.676,30.721,14.039,39.717,27.782,9.461,14.461,10.6,33.222,6.234,49.93s-13.7,31.684-24.089,45.521c-16.093,21.438-36.083,46.458-27.418,71.8,5.489,16.049,21.074,26.186,31.441,39.6,22.455,29.108,15.763,76.141-13.883,97.875-12.036,8.819-27.1,13.946-36.49,25.535-5.192,6.411-8.225,14.36-13.552,20.687-13.756,16.463-38.218,17.739-59.7,17.57q-39.107-.3-78.2-1.216c-22.946-.532-54.624,4-76.52-2.864C103.854,479.74,64.375,442.253,57.488,408.727Z" transform="translate(-0.01 -10.554)" fill="#36467f" opacity="0.18" style="isolation: isolate"/>
    <path id="Path_85007" data-name="Path 85007" d="M111.051,536.625c-12.705,3.7-27.791,11.657-26.74,24.817,1.076,13.464,17.881,18.752,31.34,20,25.631,2.365,51.431,2.154,77.172,1.934l107.682-.9c24.86-.211,49.89-.439,74.275-5.237,7.725-1.52,15.763-3.717,21.345-9.292s7.572-15.4,2.27-21.21c-4.938-5.406-13.5-5.161-19.973-8.607-7.234-3.852-11.1-11.826-16.94-17.561-12.832-12.476-32.991-12.476-50.923-11.708L193.136,514c-14.586.634-34.728-2.2-48.441,3.379C133.006,522.045,125.628,536.625,111.051,536.625Z" transform="translate(-12.899 -78.994)" fill="url(#linear-gradient)"/>
    <rect id="Rectangle_148339" data-name="Rectangle 148339" width="210.417" height="364.055" rx="23.66" transform="translate(131 125.733)" fill="#36467f"/>
    <path id="Path_85008" data-name="Path 85008" d="M356.835,179.554V450.9a17.459,17.459,0,0,1-17.483,17.435H184.043A17.467,17.467,0,0,1,166.56,450.9V179.554a17.467,17.467,0,0,1,17.483-17.434h41.716v5.811a9.194,9.194,0,0,0,9.207,9.182h61.977a9.194,9.194,0,0,0,9.207-9.182h0v-5.778h33.2a17.459,17.459,0,0,1,17.483,17.4Z" transform="translate(-25.489 -25.186)" fill="url(#linear-gradient-2)"/>
    <path id="Path_85009" data-name="Path 85009" d="M310.548,162.718c-2.583,2.433-6.395,3.869-7.674,7.18-1.059,2.737,0,5.778.424,8.683.847,6.529-1.923,12.89-3.761,19.217a68.134,68.134,0,0,0-2.7,19.242c0,3.193.195,6.614-1.491,9.292s-6.166,3.869-8.03,1.275a6.352,6.352,0,0,1-.847-1.875c-3.024-9.672-1.2-20.121-1.33-30.282s-3.3-21.582-12.35-26.253a406.184,406.184,0,0,1-9.4,52.43c-.915,3.717-2.914,8.236-6.776,8.151-.712-5.474-.991-10.981-1.271-16.505q-1.626-31.406-3.168-62.845a9.95,9.95,0,0,1,.635-5.068c1.177-2.331,3.913-3.379,6.429-4.105a117.94,117.94,0,0,1,29.392-4.789c6.666-.237,16.491,1.064,21.277,6.437C314.368,147.894,315.706,157.853,310.548,162.718Z" transform="translate(-38.578 -21.198)" opacity="0.19" fill="url(#linear-gradient-3)" style="isolation: isolate"/>
    <path id="Path_85010" data-name="Path 85010" d="M293.593,559.906H259.339a10.455,10.455,0,0,1-10.469-10.44h0A10.446,10.446,0,0,1,259.3,539h34.3a10.446,10.446,0,0,1,10.444,10.432h0a10.446,10.446,0,0,1-10.418,10.474h0Z" transform="translate(-38.081 -83.718)" fill="url(#linear-gradient-4)"/>
    <ellipse id="Ellipse_205" data-name="Ellipse 205" cx="19.812" cy="19.757" rx="19.812" ry="19.757" transform="translate(171.149 244.92)" fill="none" stroke="#fff" stroke-miterlimit="10" stroke-width="0.82"/>
    <ellipse id="Ellipse_206" data-name="Ellipse 206" cx="19.812" cy="19.757" rx="19.812" ry="19.757" transform="translate(222.08 244.911)" fill="none" stroke="#fff" stroke-miterlimit="10" stroke-width="0.82"/>
    <ellipse id="Ellipse_207" data-name="Ellipse 207" cx="19.812" cy="19.757" rx="19.812" ry="19.757" transform="translate(273.011 244.911)" fill="none" stroke="#fff" stroke-miterlimit="10" stroke-width="0.82"/>
    <ellipse id="Ellipse_208" data-name="Ellipse 208" cx="19.772" cy="19.821" rx="19.772" ry="19.821" transform="translate(167.123 331.697) rotate(-76.72)" fill="none" stroke="#fff" stroke-miterlimit="10" stroke-width="0.82"/>
    <ellipse id="Ellipse_209" data-name="Ellipse 209" cx="19.772" cy="19.821" rx="19.772" ry="19.821" transform="translate(218.056 331.696) rotate(-76.72)" fill="none" stroke="#fff" stroke-miterlimit="10" stroke-width="0.82"/>
    <ellipse id="Ellipse_210" data-name="Ellipse 210" cx="26.791" cy="26.718" rx="26.791" ry="26.718" transform="translate(217.303 364.199)" fill="#ff354e"/>
    <ellipse id="Ellipse_211" data-name="Ellipse 211" cx="19.772" cy="19.821" rx="19.772" ry="19.821" transform="translate(268.998 331.702) rotate(-76.72)" fill="none" stroke="#fff" stroke-miterlimit="10" stroke-width="0.82"/>
    <path id="Path_85011" data-name="Path 85011" d="M268.538,459.2a1.133,1.133,0,0,1-1.118-1.149h0a1.162,1.162,0,0,1,.085-.414c.915-2.314,3.388-9.545,17.237-9.545,13.078,0,16.026,7.214,16.991,9.528a1.131,1.131,0,0,1-.593,1.487,1.07,1.07,0,0,1-.432.093h-5.235a1.11,1.11,0,0,1-.974-.574c-.686-1.267-2.245-7.357-10-7.357-6.319,0-8.665,3.379-9.969,7.163a1.126,1.126,0,0,1-1.059.769Z" transform="translate(-40.919 -69.599)" fill="#fff"/>
    <rect id="Rectangle_148340" data-name="Rectangle 148340" width="12.993" height="7.56" rx="3.7" transform="translate(223.215 388.56)" fill="#fff"/>
    <rect id="Rectangle_148341" data-name="Rectangle 148341" width="12.993" height="7.56" rx="3.7" transform="translate(250.54 388.56)" fill="#fff"/>
    <path id="Path_85012" data-name="Path 85012" d="M255.1,75.475c-1.347-2.213-6.48-14.275-8.36-18.583L240.1,41.78a5.056,5.056,0,0,0,0,4.46,101.417,101.417,0,0,0-13.163,1.5c-1.5.27-3.329.929-3.456,2.441a3.361,3.361,0,0,0,1.474,2.593,21.8,21.8,0,0,0,9.216,4.722c1.889.448,4.057.769,5.175,2.348a6.955,6.955,0,0,1,.949,3.058,183.289,183.289,0,0,0,4.235,20.585c.644,2.416,1.694,5.153,4.032,5.913,1.525.5,3.176,0,4.693-.507,4.608-1.546,9.224-3.379,12.985-6.445,4.515-3.7,20.329-23.651,12.5-28.348-3.786-2.306-14.162,10-16.187,12.51C259.494,70.457,258.859,72.223,255.1,75.475Z" transform="translate(-34.195 -6.497)" fill="url(#linear-gradient-5)"/>
    <path id="Path_85013" data-name="Path 85013" d="M355.179,94.9a13.012,13.012,0,0,1-5.268,1.571c-1.186.16-2.4.262-3.6.313-7.225.3-14.62-1.36-20.193-5.862-2.965-2.4-5.362-5.533-8.665-7.45a21.829,21.829,0,0,0-8.165-2.441c-2.321-.313-4.693-.456-7-.735-5.167-.617-10.842-2.407-13.239-7.019-1.694-3.176-1.364-6.986-.847-10.533.983-6.758,2.6-13.515,2.888-20.4.161-3.717-.119-7.6-2.118-10.753-1.338-2.095-3.337-3.666-4.9-5.592-4.388-5.406-1.355-13.971,4.413-17.19A17.883,17.883,0,0,0,291.584,7c1.177-1.031,1.821-2.534,2.854-3.717C297.327-.049,302.409-.1,306.772.061l7.5.321c2.422.1,5.218.414,6.505,2.458.991,1.571.847,3.852,2.262,5.009a6,6,0,0,0,1.694.845A19.1,19.1,0,0,1,336.29,20.866c2.16,7.146-.059,15.061,2.092,22.2a4.219,4.219,0,0,0,.923,1.8,6.613,6.613,0,0,0,2.134,1.115c4.709,2.07,6.166,8.084,5.785,13.194-.212,2.88-.8,5.913.271,8.565a15.552,15.552,0,0,0,3.778,4.9c3.092,3.083,6.141,6.453,7.411,10.626S358.9,92.614,355.179,94.9Z" transform="translate(-43.145 -0.01)" fill="#3f3d56"/>
    <path id="Path_85014" data-name="Path 85014" d="M347.975,99.626c-7.225.3-14.62-1.36-20.193-5.862-2.965-2.4-5.362-5.533-8.665-7.45a21.829,21.829,0,0,0-8.165-2.441c-3.041-3.379-6.048-6.817-8.962-10.314a34.97,34.97,0,0,1-5.819-8.751c-1.347-3.252-1.694-6.555-2.126-9.934-1.143-9.418-2.253-19.183.7-28.2a13.018,13.018,0,0,1,1.694-3.649c5.082-7.011,18.567-5.913,23,1.132a20.574,20.574,0,0,1,2.338,6.479,76.526,76.526,0,0,1,1.592,11.175c.2,3.134.322,6.555,2.38,8.928,1.287,1.478,3.176,2.331,4.565,3.725,5.319,5.313,1.11,15.2,5.4,21.388a16.923,16.923,0,0,0,3.939,3.674c3.388,2.534,7.115,5.017,9.25,8.709S351.058,96.94,347.975,99.626Z" transform="translate(-44.81 -2.849)" fill="#25233a"/>
    <path id="Path_85015" data-name="Path 85015" d="M269.967,119.57s-31.416,5.735-32.322,14.123,5.692,77.847,5.692,77.847h7.191s12.917-38.011,10.689-49.187-4.489-14.284-4.489-14.284,13.087,6.445,25.461-7.771,6.852-23.719,6.852-23.719Z" transform="translate(-36.35 -18.114)" fill="#3f3d56"/>
    <path id="Path_85016" data-name="Path 85016" d="M291.366,117.716s-29.959,11.032-29.417,19.428,18.982,75.7,18.982,75.7l7.09-1.233s6.192-39.633,2.075-50.293-6.844-13.279-6.844-13.279,17.33,7.94,27.511-7.915c8.623-13.448-5.658-27.081-14.45-24.082Z" transform="translate(-40.08 -17.965)" fill="#25233a"/>
    <path id="Path_85017" data-name="Path 85017" d="M274.72,110.087V92.442s-5.2-9.63-6.048-14.588c-.491-2.872,3.142-11.682,7.327-15.086,2.914-2.365,5.082-6.58,8.809-6.7l18.287-.549,8.961,25.341L308.9,110.239S301.215,106.269,274.72,110.087Z" transform="translate(-41.103 -8.631)" fill="#36467f"/>
    <path id="Path_85018" data-name="Path 85018" d="M297.792,110.45c-.212.346-1.245,1.943-1.143,2.331s4.87.515,6.581.684c2.914.287,7.013.845,9.927,1.166,1.974-9.655.991-15.762,2.431-20.974a4.643,4.643,0,0,0,.4-1.943c-.169-1.166-4.345-7.155-5.387-7.6-3.388-1.461-3.388,3.649-3.778,5.541C305.415,97.129,301.773,104.03,297.792,110.45Z" transform="translate(-45.389 -13.031)" fill="url(#linear-gradient-6)"/>
    <path id="Path_85019" data-name="Path 85019" d="M282.855,19.36s-4.235,14.081-1.338,16.5,5.421,2.754,6.014,3.953,2.084,6.293,0,9.638-1.093,8.1,1.948,6.5,9.8-6.529,9.8-6.529l3.9-14.132s6.234-14.816,5.268-18.06S292.291,5.288,282.855,19.36Z" transform="translate(-42.92 -1.807)" fill="url(#linear-gradient-7)"/>
    <path id="Path_85020" data-name="Path 85020" d="M303.495,22.492c.457,1.774-.356,3.7.144,5.465.618,2.179,2.99,3.379,5.2,3.877s4.608.676,6.5,1.951c2.134,1.436,3.439,4.223,5.929,4.773a7.915,7.915,0,0,0,3.71-.355c2.744-.71,5.7-1.554,7.428-3.8a8.306,8.306,0,0,0,1.55-4.223c.61-5.964-3.49-11.589-8.6-14.757s-11.138-4.4-16.94-5.913c-3.219-.845-10.842-3.227-12.621,1.1-1.262,3.066,1.618,8.641,5.218,5.744C300.666,18.733,302.944,20.33,303.495,22.492Z" transform="translate(-45.213 -1.265)" fill="#3f3d56"/>
    <path id="Path_85021" data-name="Path 85021" d="M311.425,37.258s-3.752,3.024-6.031,2.2-6.183,4.223-6.183,4.223-1.2,2.044,1.457,3.041a11.812,11.812,0,0,0,9.139-.515c4.862-2.458,10.444-9.5,12.527-11.581,4.582-4.654,3.557-15.2-1.635-15.821s-4.337,5.262-4.15,5.533a5.867,5.867,0,0,0,1.135.608,2.3,2.3,0,0,1,1.169,3.032h0a2.73,2.73,0,0,1-.144.27C316.778,31.32,313.39,36.456,311.425,37.258Z" transform="translate(-45.74 -2.921)" fill="#68e1fd"/>
    <path id="Path_85022" data-name="Path 85022" d="M311.425,37.258s-3.752,3.024-6.031,2.2-6.183,4.223-6.183,4.223-1.2,2.044,1.457,3.041a11.812,11.812,0,0,0,9.139-.515c4.862-2.458,10.444-9.5,12.527-11.581,4.582-4.654,3.557-15.2-1.635-15.821s-4.337,5.262-4.15,5.533a5.867,5.867,0,0,0,1.135.608,2.3,2.3,0,0,1,1.169,3.032h0a2.73,2.73,0,0,1-.144.27C316.778,31.32,313.39,36.456,311.425,37.258Z" transform="translate(-45.74 -2.921)" fill="url(#linear-gradient-8)"/>
    <path id="Path_85023" data-name="Path 85023" d="M238.837,236.959a1.618,1.618,0,0,0-.178.845,1.066,1.066,0,0,0,.847.769,3.04,3.04,0,0,0,1.2-.059c2.6-.4,5.319-.515,7.411-2.1s4.692-5.634,2.88-7.754c0-.211-7.09,0-7.869.557C241.124,230.623,239.794,234.762,238.837,236.959Z" transform="translate(-36.518 -35.507)" fill="url(#linear-gradient-9)"/>
    <path id="Path_85024" data-name="Path 85024" d="M234.88,241.666l3.058-4.688s7.03,3.455,11.1-3.86c2.084-3.759,1.067-4.418,1.067-4.418s2.465.549,2.863,4.992a44.775,44.775,0,0,1,0,7.974l-1.838,1.014-.991-4.021s-4.692,6.344-6.158,8.5c-.745,1.107-4.235,1.943-7.378,2.492a3.269,3.269,0,0,1-3.778-2.661h0a3.219,3.219,0,0,1,.28-1.968C233.6,244.04,234.177,242.942,234.88,241.666Z" transform="translate(-35.618 -35.526)" fill="#68e1fd"/>
    <path id="Path_85025" data-name="Path 85025" d="M280.076,237.433a1.441,1.441,0,0,0-.11.845,1.016,1.016,0,0,0,.847.667,2.828,2.828,0,0,0,1.127-.127c2.422-.524,5.328-1.132,7.2-2.754s3.278-5.592,1.88-7.121c0-.186-6.666.422-7.369.988C281.77,231.41,280.762,235.338,280.076,237.433Z" transform="translate(-42.835 -35.559)" fill="url(#linear-gradient-10)"/>
    <path id="Path_85026" data-name="Path 85026" d="M276.685,242.05l2.626-4.612a7.8,7.8,0,0,0,10.164-4.274c1.694-3.658.745-4.223.745-4.223s2.346.38,2.982,4.528a41.818,41.818,0,0,1,.466,7.492l-1.694,1.064-1.169-3.742s-4.032,6.268-5.26,8.346c-.635,1.081-3.845,2.078-6.776,2.779a3.084,3.084,0,0,1-3.735-2.222h0a3.025,3.025,0,0,1,.169-1.985C275.609,244.356,276.092,243.291,276.685,242.05Z" transform="translate(-42.069 -35.564)" fill="#68e1fd"/>
    <path id="Path_85027" data-name="Path 85027" d="M234.88,241.666l3.058-4.688s7.03,3.455,11.1-3.86c2.084-3.759,1.067-4.418,1.067-4.418s2.465.549,2.863,4.992a44.775,44.775,0,0,1,0,7.974l-1.838,1.014-.991-4.021s-4.692,6.344-6.158,8.5c-.745,1.107-4.235,1.943-7.378,2.492a3.269,3.269,0,0,1-3.778-2.661h0a3.219,3.219,0,0,1,.28-1.968C233.6,244.04,234.177,242.942,234.88,241.666Z" transform="translate(-35.618 -35.526)" fill="url(#linear-gradient-11)"/>
    <path id="Path_85028" data-name="Path 85028" d="M276.685,242.05l2.626-4.612a7.8,7.8,0,0,0,10.164-4.274c1.694-3.658.745-4.223.745-4.223s2.346.38,2.982,4.528a41.818,41.818,0,0,1,.466,7.492l-1.694,1.064-1.169-3.742s-4.032,6.268-5.26,8.346c-.635,1.081-3.845,2.078-6.776,2.779a3.084,3.084,0,0,1-3.735-2.222h0a3.025,3.025,0,0,1,.169-1.985C275.609,244.356,276.092,243.291,276.685,242.05Z" transform="translate(-42.069 -35.564)" fill="url(#linear-gradient-12)"/>
    <path id="Path_85029" data-name="Path 85029" d="M303.58,61.209s13.493,40.081,28.926,25.037c2.99-2.914-8.885-45.47-9.512-46.458s.847-7.6-.627-8.827a15.773,15.773,0,0,0-3.676-2.171s-2.084.338-2.007,1.749-2,2.669-2.422,3.666-2.634,4.055-2.279,5.322a19.3,19.3,0,0,0,1.957,4.088c.322.329,5.811,25.459,5.811,25.459s-5.209-19.284-11.325-17.739S303.58,61.209,303.58,61.209Z" transform="translate(-46.434 -4.479)" fill="url(#linear-gradient-13)"/>
  </g>
</svg>
