<svg xmlns="http://www.w3.org/2000/svg" width="175" height="82" viewBox="0 0 175 82">
  <g id="Group_161941" data-name="Group 161941" transform="translate(-130.778 -111.37)">
    <g id="SKAE_logo_2_" data-name="SKAE logo (2)" transform="translate(130.778 111.37)">
      <path id="path4" d="M245.1,398.35H401.5v47.972H245.1V398.35Z" transform="translate(-226.505 -381.308)" fill="#37467f" fill-rule="evenodd"/>
      <path id="path6" d="M233.829,388.05h60.81v82h-60.81Z" transform="translate(-233.829 -388.05)" fill="#37467f" fill-rule="evenodd"/>
      <path id="path8" d="M245.088,398.35h42.247v48.005H245.088V398.35Z" transform="translate(-226.514 -381.308)" fill="#e94d11" fill-rule="evenodd"/>
      <path id="path10" d="M273.655,402.173l.325,10.93H272.9a11.989,11.989,0,0,0-1.328-3.66,10.2,10.2,0,0,0-2.467-2.918,11.407,11.407,0,0,0-3.144-1.855,9.384,9.384,0,0,0-3.361-.618,8.293,8.293,0,0,0-2.412.322,5.623,5.623,0,0,0-1.87.964,4.7,4.7,0,0,0-1.165,1.434,3.531,3.531,0,0,0-.407,1.632,3.91,3.91,0,0,0,.136,1.039,2.931,2.931,0,0,0,.406.89,7.692,7.692,0,0,0,1.03,1.138,10.3,10.3,0,0,0,1.464,1.088,21.264,21.264,0,0,0,2.033,1.113q1.437.717,3.713,1.706a40.606,40.606,0,0,1,5.259,2.72,15.135,15.135,0,0,1,3.253,2.621,8.557,8.557,0,0,1,2.169,5.737,8.319,8.319,0,0,1-.895,3.833,10.657,10.657,0,0,1-2.629,3.239,11.1,11.1,0,0,1-3.957,2.176,16.538,16.538,0,0,1-4.933.692q-.867,0-1.654-.074t-1.545-.223q-.759-.148-1.708-.4a18.9,18.9,0,0,1-2.087-.692,9.706,9.706,0,0,0-1.165-.371,4.075,4.075,0,0,0-.949-.124,2.039,2.039,0,0,0-.678.124,4.864,4.864,0,0,0-.786.371,2.28,2.28,0,0,0-.678.544,4.887,4.887,0,0,0-.569.841h-.976V424.082h.976a17.482,17.482,0,0,0,1.708,4.624,11.68,11.68,0,0,0,2.792,3.388,13.306,13.306,0,0,0,3.469,2.028,10.13,10.13,0,0,0,3.687.693,8.851,8.851,0,0,0,2.683-.371,5.787,5.787,0,0,0,2.033-1.113,4.928,4.928,0,0,0,1.355-1.607,3.981,3.981,0,0,0,.433-1.805,4.212,4.212,0,0,0-.163-1.162,3.744,3.744,0,0,0-.542-1.113,5.007,5.007,0,0,0-.84-1.038,13.24,13.24,0,0,0-1.166-.989,12.337,12.337,0,0,0-1.924-1.162q-1.22-.618-2.954-1.409-2.493-1.088-4.229-2.028a25.364,25.364,0,0,1-2.819-1.731,11.516,11.516,0,0,1-1.9-1.607,12.125,12.125,0,0,1-1.409-1.805,9.9,9.9,0,0,1-.84-2.028,7.842,7.842,0,0,1-.3-2.176,8.37,8.37,0,0,1,.786-3.635,9.487,9.487,0,0,1,2.358-3.042,10.635,10.635,0,0,1,3.551-2.077,13.136,13.136,0,0,1,4.364-.692,15.094,15.094,0,0,1,1.762.1,13.854,13.854,0,0,1,1.653.3q.6.148,1.382.42t1.654.668l1.518.569a2.939,2.939,0,0,0,.976.223,1.731,1.731,0,0,0,.6-.1,1.463,1.463,0,0,0,.488-.3.856.856,0,0,0,.19-.272q.081-.173.19-.371a3.685,3.685,0,0,0,.19-.569q.081-.321.19-.667l.759-.049Zm27.082.742v21.563l5.746-5.143a12.84,12.84,0,0,0,1.437-1.311,7.131,7.131,0,0,0,.732-.915.659.659,0,0,0,.163-.222q.054-.123.109-.222a2.9,2.9,0,0,0,.163-.47,1.783,1.783,0,0,0,.054-.421,1.18,1.18,0,0,0-.163-.618,1.591,1.591,0,0,0-.434-.47,1.993,1.993,0,0,0-.84-.4,10.639,10.639,0,0,0-1.437-.247v-.94h11.059v.89a13.364,13.364,0,0,0-1.464.272,6.252,6.252,0,0,0-1.3.47,11.762,11.762,0,0,0-1.762,1.212q-1.166.915-2.9,2.5l-2.711,2.374,5.855,7.765q1.735,2.424,2.792,3.759a12.145,12.145,0,0,0,1.382,1.583,2.822,2.822,0,0,0,1,.668,4.318,4.318,0,0,0,1.274.272v.791H306.7v-.841a2.091,2.091,0,0,0,.732-.025,1.581,1.581,0,0,0,.515-.222.927.927,0,0,0,.3-.3.71.71,0,0,0,.081-.346,1.937,1.937,0,0,0-.271-.767,8.146,8.146,0,0,0-.867-1.261l-4.879-6.578-1.572,1.385v4.055a13.648,13.648,0,0,0,.136,2.151,2.645,2.645,0,0,0,.406,1.162,2.037,2.037,0,0,0,.786.495,5.816,5.816,0,0,0,1.382.3v.791H290.653v-.841a4.436,4.436,0,0,0,1.328-.272,2.136,2.136,0,0,0,.894-.618,2.1,2.1,0,0,0,.325-1.014,15.835,15.835,0,0,0,.108-2.1V407.861a12.392,12.392,0,0,0-.135-2.028,2.6,2.6,0,0,0-.407-1.138,1.732,1.732,0,0,0-.759-.519,5.283,5.283,0,0,0-1.355-.322v-.94h10.083Zm44.212,29.426a18.022,18.022,0,0,1-4.31,2.745,9.789,9.789,0,0,1-3.822.865,6.315,6.315,0,0,1-1.9-.272,4.665,4.665,0,0,1-1.626-.915,4.312,4.312,0,0,1-1.057-1.434,4.2,4.2,0,0,1-.352-1.731,5.106,5.106,0,0,1,.623-2.448,7.907,7.907,0,0,1,1.816-2.2,23.021,23.021,0,0,1,3.9-2.423q2.656-1.385,6.722-3.066v-2.324q0-1.237-.081-2.028a6.44,6.44,0,0,0-.19-1.137,2.266,2.266,0,0,0-.461-.643,3.449,3.449,0,0,0-.732-.544,2.857,2.857,0,0,0-.867-.371,4.17,4.17,0,0,0-1.03-.124,6.6,6.6,0,0,0-1.572.173,3.509,3.509,0,0,0-1.247.569,1.4,1.4,0,0,0-.542.445.97.97,0,0,0-.163.544,1.031,1.031,0,0,0,.19.544,4.732,4.732,0,0,0,.569.692,3.706,3.706,0,0,1,.732,1.014,2.373,2.373,0,0,1,.244,1.014,2.582,2.582,0,0,1-.244,1.113,2.9,2.9,0,0,1-.678.915,3.684,3.684,0,0,1-1.138.618,4.325,4.325,0,0,1-1.409.223,4.5,4.5,0,0,1-1.545-.247,4.964,4.964,0,0,1-1.274-.693,3.042,3.042,0,0,1-.813-.989,2.518,2.518,0,0,1-.271-1.137,4.169,4.169,0,0,1,.379-1.731,5.862,5.862,0,0,1,1.138-1.632,7.976,7.976,0,0,1,1.789-1.385,12.722,12.722,0,0,1,2.385-1.039,22.192,22.192,0,0,1,2.765-.618,18.392,18.392,0,0,1,2.873-.223,12.87,12.87,0,0,1,3.117.346,7.589,7.589,0,0,1,2.412,1.039,7.1,7.1,0,0,1,1.735,1.385,5.3,5.3,0,0,1,.976,1.583,7.633,7.633,0,0,1,.244,1.657q.081,1.162.081,2.992v8.7a12.125,12.125,0,0,0,.054,1.311,5.047,5.047,0,0,0,.108.668,1.055,1.055,0,0,0,.163.346,1.64,1.64,0,0,0,.217.247.7.7,0,0,0,.271.148,1.115,1.115,0,0,0,.325.049,1.275,1.275,0,0,0,.678-.222,3.352,3.352,0,0,0,.732-.668l.813.544a10.1,10.1,0,0,1-1.328,1.582,6.362,6.362,0,0,1-1.437,1.039,7.546,7.546,0,0,1-1.491.544,6.978,6.978,0,0,1-1.707.2,8.169,8.169,0,0,1-1.87-.2,4.4,4.4,0,0,1-1.437-.594,3.988,3.988,0,0,1-1.464-2.769Zm0-1.78v-7.517a21.979,21.979,0,0,0-2.819,1.8,10.473,10.473,0,0,0-1.952,1.9,6.229,6.229,0,0,0-.461.668,3.774,3.774,0,0,0-.3.618,2.585,2.585,0,0,0-.217.668,3.994,3.994,0,0,0-.054.668,2.679,2.679,0,0,0,.217,1.088,2.631,2.631,0,0,0,.651.89,1.815,1.815,0,0,0,.813.495,3.71,3.71,0,0,0,1.084.148,3.418,3.418,0,0,0,1.41-.346,7.972,7.972,0,0,0,1.626-1.039Zm44.917-6.973H376.259a13,13,0,0,0,.786,4.08,9.386,9.386,0,0,0,1.87,3.042,6.057,6.057,0,0,0,2.006,1.533,5.889,5.889,0,0,0,3.876.3,5.314,5.314,0,0,0,1.382-.593,6.781,6.781,0,0,0,1.355-1.138,13.988,13.988,0,0,0,1.409-1.78l.922.445a20.518,20.518,0,0,1-2.114,3.264,9.784,9.784,0,0,1-2.331,2.127,8.884,8.884,0,0,1-2.629,1.088,12.8,12.8,0,0,1-3.009.346,11.994,11.994,0,0,1-4.852-.915,8.515,8.515,0,0,1-3.5-2.844,11.574,11.574,0,0,1-1.708-3.511,14.8,14.8,0,0,1-.569-4.2,14.407,14.407,0,0,1,.84-5.069,10.876,10.876,0,0,1,2.521-3.932,11.665,11.665,0,0,1,3.632-2.522,10.573,10.573,0,0,1,4.229-.841,9.325,9.325,0,0,1,8.646,6.306,16.831,16.831,0,0,1,.84,4.871v-.049Zm-6.505-1.632q0-1.879-.109-3.215a8.263,8.263,0,0,0-.379-2.077,5.518,5.518,0,0,0-.569-1.261,3.111,3.111,0,0,0-.84-.915,1.982,1.982,0,0,0-.7-.346,3.214,3.214,0,0,0-.813-.1,2.4,2.4,0,0,0-1.247.321,3.31,3.31,0,0,0-.976.915,7.256,7.256,0,0,0-1.193,2.547,13.309,13.309,0,0,0-.379,3.338v.791Z" transform="translate(-222.676 -378.806)" fill="#fff" fill-rule="evenodd"/>
      <path id="path12" d="M276.827,431.523a.488.488,0,0,1-.139-.023,4.855,4.855,0,0,0-2.255-.151,8.562,8.562,0,0,0-.933.21,3.6,3.6,0,0,1,.04.475q0,.633-.075,1.741l1.955-.191c.575-.061.927-.092,1.058-.092a.466.466,0,0,1,.331.128.455.455,0,0,1,.134.342.42.42,0,0,1-.412.465l-1.062.095-2.064.191c-.01.216-.021.42-.029.613s-.012.374-.012.542a2.636,2.636,0,0,0,.143,1.184c.072.086.3.128.7.128q.277,0,.832-.015c.37-.012.649-.015.838-.015a1.707,1.707,0,0,0,.262-.03,1.679,1.679,0,0,1,.259-.03.418.418,0,0,1,.474.473.425.425,0,0,1-.379.461,11.554,11.554,0,0,1-1.818.087,2.8,2.8,0,0,1-1.777-.374,2.739,2.739,0,0,1-.428-1.869c0-.195,0-.408.013-.64s.021-.479.035-.747a.534.534,0,0,1-.049-.224.477.477,0,0,1,.085-.277q.089-1.319.088-1.947a3.742,3.742,0,0,0-.044-.495,4.1,4.1,0,0,1-.044-.495c0-.361.148-.543.447-.543a.446.446,0,0,1,.321.132,9.144,9.144,0,0,1,1.01-.218,5.787,5.787,0,0,1,.9-.073,4.641,4.641,0,0,1,1.731.265.44.44,0,0,1,.3.437.5.5,0,0,1-.116.324.406.406,0,0,1-.322.156Zm5.456,2.224-.652.626-.8.806,1.455,1.942a.477.477,0,0,1,.113.288.442.442,0,0,1-.134.314.413.413,0,0,1-.3.137.4.4,0,0,1-.31-.168q-.409-.488-1.446-1.88l-.87.917q-.263.243-.768.753a.385.385,0,0,1-.61.026.441.441,0,0,1-.131-.314.469.469,0,0,1,.111-.286,2.878,2.878,0,0,1,.389-.406c.206-.185.34-.313.405-.383l.951-1.018-.584-.861a4.359,4.359,0,0,0-.617-.753.451.451,0,0,1-.169-.336.464.464,0,0,1,.128-.324.378.378,0,0,1,.291-.142q.265,0,.8.7l.773,1.089.875-.82a5.377,5.377,0,0,0,.736-.822.411.411,0,0,1,.34-.213.423.423,0,0,1,.308.132.413.413,0,0,1,.134.3A1.218,1.218,0,0,1,282.283,433.746Zm3.192,4.073a3.791,3.791,0,0,1-.982-.146l-.01,2.179a.453.453,0,0,1-.123.328.412.412,0,0,1-.314.128.418.418,0,0,1-.315-.128.458.458,0,0,1-.122-.328l.013-1.824v-1.819q-.015-1-.067-1.819l-.067-.924a1.173,1.173,0,0,1,.116-.548.419.419,0,0,1,.388-.269.386.386,0,0,1,.293.126.435.435,0,0,1,.117.308c0,.026,0,.076-.013.149-.013.095-.024.18-.03.26a3.425,3.425,0,0,1,.741-.4,1.931,1.931,0,0,1,.684-.134,1.4,1.4,0,0,1,1.338.83,3.826,3.826,0,0,1,.335,1.737,2.491,2.491,0,0,1-.518,1.623,1.792,1.792,0,0,1-1.464.675Zm.309-3.955a1.484,1.484,0,0,0-.742.188,3.153,3.153,0,0,0-.6.482c.038.691.058,1.415.058,2.176a2.637,2.637,0,0,0,.972.192.975.975,0,0,0,.853-.425,1.656,1.656,0,0,0,.255-.957,3,3,0,0,0-.2-1.242A.641.641,0,0,0,285.784,433.865Zm4.767,4a2.493,2.493,0,0,1-1.634-.515,1.963,1.963,0,0,1-.683-1.6,3.377,3.377,0,0,1,.562-1.987,1.9,1.9,0,0,1,1.634-.876,2.5,2.5,0,0,1,1.21.257,1.029,1.029,0,0,1,.576.966,1.045,1.045,0,0,1-.5.83,7.158,7.158,0,0,1-.946.51l-1.705.825a1.626,1.626,0,0,0,.623.57,1.875,1.875,0,0,0,.867.191,2.68,2.68,0,0,0,.724-.118,1.142,1.142,0,0,0,.678-.394c.1-.163.21-.244.326-.244a.419.419,0,0,1,.4.4c0,.338-.267.627-.8.872a3.218,3.218,0,0,1-1.33.31Zm-.12-4.154a1.131,1.131,0,0,0-.905.431,2.915,2.915,0,0,0-.541,1.3l1.37-.666a5.762,5.762,0,0,0,1.152-.7A1.5,1.5,0,0,0,290.431,433.715Zm6.52.574q-.032.57-.447.57c-.256,0-.384-.151-.384-.451,0-.057,0-.163-.013-.319l-.013-.383a2.309,2.309,0,0,0-1.129.406,2.175,2.175,0,0,0-.661.893l.01,2.5c0,.308-.148.461-.442.461-.262,0-.393-.153-.393-.461v-3.2c0-.1.005-.251.012-.451s.01-.352.01-.451c0-.308.131-.461.393-.461q.437,0,.442.756a2.66,2.66,0,0,1,1.9-.844.6.6,0,0,1,.539.279,1.575,1.575,0,0,1,.178.839c0,.157,0,.265,0,.319Zm3.906-.515c-.062,0-.136,0-.221-.01s-.159-.01-.221-.01-.271.023-.607.068l.084,2.7,0,.2,0,.234c.012.666-.143,1-.468,1a.45.45,0,0,1-.311-.118.377.377,0,0,1-.131-.3c0-.115,0-.289.011-.52s.013-.4.013-.52l-.088-2.663c-.218-.01-.549-.034-.992-.078a.41.41,0,0,1-.4-.451.475.475,0,0,1,.122-.333.4.4,0,0,1,.308-.132l.938.078c0-.154-.007-.363-.02-.622s-.02-.447-.02-.564a.42.42,0,0,1,.129-.316.433.433,0,0,1,.317-.126c.267,0,.424.224.468.671.008.112.013.248.013.406l-.01.265-.005.282c.369-.048.581-.073.634-.073a2.421,2.421,0,0,1,.608.047.4.4,0,0,1,.271.428.463.463,0,0,1-.122.33.415.415,0,0,1-.316.131Zm4.336.374a.365.365,0,0,1-.344-.168,1.6,1.6,0,0,1-.116-.493c-.222.058-.567.165-1.032.319-.479.194-.719.436-.722.721a1.455,1.455,0,0,0,.264.073,4.25,4.25,0,0,1,1.526.515,1.557,1.557,0,0,1,.728,1.387,1.232,1.232,0,0,1-.629,1.122,2.575,2.575,0,0,1-1.321.31,3.137,3.137,0,0,1-1.117-.2c-.457-.171-.687-.408-.687-.711a.433.433,0,0,1,.14-.319.447.447,0,0,1,.32-.137.6.6,0,0,1,.357.218,1.007,1.007,0,0,0,.483.174,2.937,2.937,0,0,0,.5.054,2.169,2.169,0,0,0,.66-.092c.277-.087.416-.227.416-.419q0-.621-.849-.839l-.465-.106a2.44,2.44,0,0,1-.843-.31.881.881,0,0,1-.363-.77,1.4,1.4,0,0,1,.881-1.359,6.542,6.542,0,0,1,.857-.294,6.44,6.44,0,0,0,.844-.29.965.965,0,0,1,.4-.082.42.42,0,0,1,.314.128.46.46,0,0,1,.124.333,2.022,2.022,0,0,0,.055.388,1.943,1.943,0,0,1,.057.387.46.46,0,0,1-.123.333A.412.412,0,0,1,305.192,434.148Zm5.023-2.261a.527.527,0,0,1-.37-.9.525.525,0,0,1,.739.747A.5.5,0,0,1,310.216,431.887Zm.2,3.7c0,.182,0,.454.015.819s.015.635.015.818a.459.459,0,0,1-.12.328.456.456,0,0,1-.633,0,.459.459,0,0,1-.122-.328q0-.275-.015-.818c-.01-.364-.017-.637-.017-.819q0-.429.046-1.069t.044-1.069a.46.46,0,0,1,.124-.333.413.413,0,0,1,.314-.128.418.418,0,0,1,.315.128.465.465,0,0,1,.122.333q0,.427-.044,1.069c-.03.426-.044.783-.044,1.069Zm4.933,2.394c-.256,0-.4-.143-.433-.428l-.125-1a8.749,8.749,0,0,1-.062-1c0-.084,0-.229.015-.433s.017-.349.017-.433c0-.657-.12-.985-.358-.985a1.243,1.243,0,0,0-.956.607,4.2,4.2,0,0,0-.643,1.394c-.007.118-.018.268-.04.447a3.7,3.7,0,0,0-.027.442c0,.092.008.229.027.411s.028.319.028.411a.46.46,0,0,1-.123.333.456.456,0,0,1-.633,0,.47.47,0,0,1-.12-.333q0-.138-.029-.411c-.018-.182-.029-.319-.029-.411q0-.469.065-1.3t.064-1.3q0-.147-.015-.434c-.01-.191-.015-.336-.015-.433a.429.429,0,0,1,.442-.447q.409,0,.451.593l.012.532a2.034,2.034,0,0,1,1.541-1.021,1.006,1.006,0,0,1,1,.643,3.42,3.42,0,0,1,.209,1.268v.461l0,.423a6.441,6.441,0,0,0,.1.977,6.429,6.429,0,0,1,.1.974.432.432,0,0,1-.447.451Zm4.074-1.46a.386.386,0,0,1,.126-.311.46.46,0,0,1,.323-.121.465.465,0,0,1,.384.255,1.742,1.742,0,0,0,.407.47,1.982,1.982,0,0,0,1.1.255,2.763,2.763,0,0,0,1.285-.3,1.2,1.2,0,0,0,.759-1.089,1.006,1.006,0,0,0-.637-.907,3.021,3.021,0,0,0-1.335-.311,2.554,2.554,0,0,1-1.2-.314,1.163,1.163,0,0,1-.634-1.057,1.876,1.876,0,0,1,.9-1.483,2.977,2.977,0,0,1,1.782-.633,3.678,3.678,0,0,1,.978.151q.723.2.722.5a.354.354,0,0,1-.4.4,3.458,3.458,0,0,1-.625-.1,3.193,3.193,0,0,0-.693-.093,2.065,2.065,0,0,0-1.183.35,1.023,1.023,0,0,0-.5.853c0,.252.221.431.662.534a7.02,7.02,0,0,0,.951.109,2.431,2.431,0,0,1,1.6.657,1.757,1.757,0,0,1,.527,1.29,1.99,1.99,0,0,1-.982,1.734,3.521,3.521,0,0,1-1.978.56,3.465,3.465,0,0,1-1.5-.319,1.228,1.228,0,0,1-.843-1.077Zm8.259,1.3a3.788,3.788,0,0,1-.982-.146l-.008,2.179a.454.454,0,0,1-.124.328.412.412,0,0,1-.314.127.417.417,0,0,1-.315-.127.459.459,0,0,1-.122-.328l.013-1.824v-1.819q-.015-1-.067-1.819l-.067-.924a1.174,1.174,0,0,1,.116-.548.419.419,0,0,1,.389-.269.386.386,0,0,1,.293.126.435.435,0,0,1,.117.308c0,.026,0,.076-.013.149-.013.095-.024.18-.03.26a3.426,3.426,0,0,1,.741-.4,1.93,1.93,0,0,1,.684-.134,1.4,1.4,0,0,1,1.338.83,3.825,3.825,0,0,1,.336,1.737,2.492,2.492,0,0,1-.518,1.623,1.792,1.792,0,0,1-1.464.675Zm.309-3.955a1.485,1.485,0,0,0-.742.188,3.156,3.156,0,0,0-.6.483c.038.691.058,1.415.058,2.176a2.64,2.64,0,0,0,.972.191.975.975,0,0,0,.853-.425,1.656,1.656,0,0,0,.255-.957,3,3,0,0,0-.2-1.242.641.641,0,0,0-.6-.414Zm4.357,4.063a1.727,1.727,0,0,1-1.291-.565,2.463,2.463,0,0,1-.634-1.692,2.994,2.994,0,0,1,.509-1.815,1.986,1.986,0,0,1,1.742-.926,1.464,1.464,0,0,1,1.352.834,3.241,3.241,0,0,1,.354,1.623,2.98,2.98,0,0,1-.518,1.728,1.767,1.767,0,0,1-1.513.812Zm.268-4.071c-.991-.007-1.314,1.116-1.314,1.815a1.428,1.428,0,0,0,.354,1.03.93.93,0,0,0,.692.3,1.068,1.068,0,0,0,.8-.347,1.482,1.482,0,0,0,.4-1.035Q333.612,433.86,332.618,433.857Zm6.585,3.989a.414.414,0,0,1-.38-.265,7.849,7.849,0,0,0-.7-1.089l-.791-1.1q-.258.21-.8.588c-.033.472-.049.931-.049,1.377a.46.46,0,0,1-.124.333.423.423,0,0,1-.315.127q-.45,0-.45-.621,0-.378.05-1.133c.035-.5.052-.881.052-1.133q0-.693.02-1.584t.02-1.575c0-.137-.007-.3-.02-.484s-.02-.346-.02-.482a.463.463,0,0,1,.122-.333.454.454,0,0,1,.631,0,.463.463,0,0,1,.122.333c0,.14.008.3.023.495s.021.355.021.493l-.031,1.469c-.015.529-.02,1.057-.013,1.586a12.211,12.211,0,0,0,1.171-1.039l.981-1.035a.412.412,0,0,1,.633-.012.45.45,0,0,1,.14.327.468.468,0,0,1-.129.307,16.089,16.089,0,0,1-1.354,1.409l.974,1.354a3.275,3.275,0,0,1,.683,1.24.414.414,0,0,1-.14.315.455.455,0,0,1-.323.132Zm3.3.023a2.494,2.494,0,0,1-1.634-.515,1.963,1.963,0,0,1-.683-1.6,3.377,3.377,0,0,1,.562-1.987,1.9,1.9,0,0,1,1.634-.876,2.5,2.5,0,0,1,1.21.257,1.03,1.03,0,0,1,.576.967,1.045,1.045,0,0,1-.5.83,7.14,7.14,0,0,1-.946.51l-1.705.825a1.625,1.625,0,0,0,.623.57,1.874,1.874,0,0,0,.867.191,2.676,2.676,0,0,0,.724-.118,1.142,1.142,0,0,0,.678-.394c.1-.163.21-.244.326-.244a.42.42,0,0,1,.4.4q0,.507-.8.872a3.218,3.218,0,0,1-1.33.31Zm-.12-4.154a1.131,1.131,0,0,0-.905.431,2.913,2.913,0,0,0-.541,1.3l1.37-.666a5.766,5.766,0,0,0,1.152-.7,1.5,1.5,0,0,0-1.076-.364Zm6.47,4.267c-.256,0-.4-.143-.433-.428l-.125-1a8.748,8.748,0,0,1-.062-1c0-.084,0-.229.015-.433s.017-.348.017-.433c0-.657-.12-.985-.358-.985a1.244,1.244,0,0,0-.956.607,4.2,4.2,0,0,0-.643,1.394c-.007.118-.018.268-.04.447a3.7,3.7,0,0,0-.027.442c0,.092.01.229.027.411s.028.319.028.411a.46.46,0,0,1-.123.333.456.456,0,0,1-.633,0,.47.47,0,0,1-.12-.333q0-.138-.029-.411c-.018-.182-.029-.319-.029-.411q0-.469.066-1.3t.064-1.3q0-.147-.015-.434c-.01-.191-.015-.336-.015-.433a.43.43,0,0,1,.442-.447c.273,0,.424.2.451.593l.011.532a2.035,2.035,0,0,1,1.541-1.021,1,1,0,0,1,1,.643,3.425,3.425,0,0,1,.209,1.268v.461l-.005.423a6.425,6.425,0,0,0,.1.977,6.427,6.427,0,0,1,.1.974.432.432,0,0,1-.447.451Zm8.454-6.46a.491.491,0,0,1-.139-.023,4.861,4.861,0,0,0-2.256-.151,8.623,8.623,0,0,0-.933.21,3.593,3.593,0,0,1,.039.475q0,.633-.075,1.742l1.955-.191c.575-.061.927-.092,1.058-.092a.466.466,0,0,1,.331.128.454.454,0,0,1,.134.342.42.42,0,0,1-.411.465l-1.062.1-2.063.191c-.012.216-.021.42-.029.613s-.011.374-.011.542a2.639,2.639,0,0,0,.143,1.184c.072.086.3.128.7.128q.277,0,.832-.015c.371-.012.649-.015.838-.015a1.712,1.712,0,0,0,.262-.03,1.671,1.671,0,0,1,.259-.03.419.419,0,0,1,.474.473.425.425,0,0,1-.379.461,11.565,11.565,0,0,1-1.818.087,2.8,2.8,0,0,1-1.777-.374,2.74,2.74,0,0,1-.428-1.869c0-.195,0-.408.013-.64s.021-.479.035-.747a.533.533,0,0,1-.049-.224.475.475,0,0,1,.085-.277q.089-1.319.088-1.947a3.724,3.724,0,0,0-.044-.495,4.111,4.111,0,0,1-.044-.5c0-.361.148-.543.446-.543a.446.446,0,0,1,.322.132,9.144,9.144,0,0,1,1.01-.218,5.771,5.771,0,0,1,.9-.073,4.642,4.642,0,0,1,1.731.265.44.44,0,0,1,.3.437.5.5,0,0,1-.116.324.406.406,0,0,1-.322.156Zm4.776,6.46c-.256,0-.4-.143-.433-.428l-.125-1a8.736,8.736,0,0,1-.063-1c0-.084.005-.229.015-.433s.017-.348.017-.433c0-.657-.12-.985-.358-.985a1.243,1.243,0,0,0-.956.607,4.2,4.2,0,0,0-.643,1.394c-.007.118-.018.268-.04.447a3.692,3.692,0,0,0-.028.442c0,.092.01.229.028.411s.027.319.027.411a.46.46,0,0,1-.123.333.456.456,0,0,1-.633,0,.471.471,0,0,1-.12-.333,3.86,3.86,0,0,0-.029-.411c-.018-.182-.029-.319-.029-.411q0-.469.066-1.3t.064-1.3q0-.147-.015-.434c-.011-.191-.015-.336-.015-.433a.429.429,0,0,1,.442-.447q.409,0,.451.593l.012.532a2.034,2.034,0,0,1,1.541-1.021,1.006,1.006,0,0,1,1,.643,3.426,3.426,0,0,1,.209,1.268v.461l0,.423a6.425,6.425,0,0,0,.1.977,6.451,6.451,0,0,1,.1.974.432.432,0,0,1-.447.451Zm5.037-2.289-.1,1.533a6.678,6.678,0,0,1-.183,1.491,2.023,2.023,0,0,1-.643,1.09,2.446,2.446,0,0,1-1.55.423,5.111,5.111,0,0,1-1-.081q-.562-.114-.562-.475,0-.406.389-.406a2.993,2.993,0,0,1,.535.079,3.567,3.567,0,0,0,.831.072,1.211,1.211,0,0,0,1.184-.848,5.283,5.283,0,0,0,.227-1.71,1.852,1.852,0,0,1-.573.685,1.322,1.322,0,0,1-.762.227,1.686,1.686,0,0,1-1.315-.564,2.1,2.1,0,0,1-.506-1.461,2.811,2.811,0,0,1,.692-1.983,2.515,2.515,0,0,1,1.946-.775,1.922,1.922,0,0,1,.7.109.89.89,0,0,1,.43.328c.317.01.477.19.477.543a5.39,5.39,0,0,1-.095.867c-.067.419-.108.705-.12.856Zm-1.432-1.974a1.565,1.565,0,0,0-1.312.6,2.167,2.167,0,0,0-.416,1.366,1.669,1.669,0,0,0,.246.994.858.858,0,0,0,.738.333,1.168,1.168,0,0,0,.875-.52,1.862,1.862,0,0,0,.438-.948q.094-.493.2-1.547a1.3,1.3,0,0,0-.37-.209,1.153,1.153,0,0,0-.4-.068Zm3.746.355-.067,2.266c0,.241-.01.593-.035,1.058-.031.3-.175.456-.437.456-.293,0-.438-.156-.438-.466q0-.551.049-1.657t.049-1.658q0-.719.023-1.648t.023-1.648c0-.3.145-.456.437-.456a.4.4,0,0,1,.442.456q0,.721-.023,1.648T369.435,434.075Z" transform="translate(-208.72 -360.383)" fill="#131510" fill-rule="evenodd"/>
      <path id="path14" d="M332.861,431.874a.527.527,0,0,1-.37-.9.525.525,0,0,1,.739.747A.5.5,0,0,1,332.861,431.874Zm.2,3.7c0,.182,0,.454.015.819s.015.635.015.818a.458.458,0,0,1-.12.328.456.456,0,0,1-.633,0,.46.46,0,0,1-.122-.328c0-.184-.005-.456-.015-.818s-.017-.637-.017-.819q0-.429.046-1.069c.029-.428.044-.784.044-1.069a.459.459,0,0,1,.124-.333.413.413,0,0,1,.314-.128.419.419,0,0,1,.315.128.466.466,0,0,1,.122.333q0,.427-.044,1.069c-.031.427-.044.783-.044,1.069Zm4.523-1.441a.365.365,0,0,1-.344-.168,1.6,1.6,0,0,1-.116-.493c-.222.057-.567.165-1.032.319-.479.194-.719.436-.722.72a1.429,1.429,0,0,0,.264.073,4.254,4.254,0,0,1,1.526.515,1.557,1.557,0,0,1,.729,1.387,1.232,1.232,0,0,1-.629,1.122,2.573,2.573,0,0,1-1.321.31,3.138,3.138,0,0,1-1.117-.2c-.457-.171-.687-.408-.687-.711a.433.433,0,0,1,.14-.319.447.447,0,0,1,.32-.137.6.6,0,0,1,.357.218,1.007,1.007,0,0,0,.483.174,2.959,2.959,0,0,0,.5.054,2.171,2.171,0,0,0,.66-.092c.277-.087.416-.227.416-.419q0-.621-.849-.839l-.465-.106a2.436,2.436,0,0,1-.843-.31.881.881,0,0,1-.363-.77,1.4,1.4,0,0,1,.881-1.359,6.544,6.544,0,0,1,.856-.294,6.474,6.474,0,0,0,.844-.289.964.964,0,0,1,.4-.082.42.42,0,0,1,.314.128.459.459,0,0,1,.123.333,2.015,2.015,0,0,0,.055.388,1.933,1.933,0,0,1,.056.387.46.46,0,0,1-.123.333A.412.412,0,0,1,337.585,434.135Zm5.174,3.794a.411.411,0,0,1-.415-.347,7.868,7.868,0,0,1-.188-1.063,9.394,9.394,0,0,1-.081-1.085c0-2.824-1.261-1.5-2.036-.026a7.786,7.786,0,0,1-.143,2.056.407.407,0,0,1-.387.282.454.454,0,0,1-.322-.128.4.4,0,0,1-.139-.31.827.827,0,0,1,.04-.2,3.488,3.488,0,0,0,.049-.664l.013-.676.013-3.351c.021-.378.03-.632.03-.763a2.2,2.2,0,0,0-.041-.439,2.113,2.113,0,0,1-.042-.431.422.422,0,0,1,.129-.318.433.433,0,0,1,.317-.125.406.406,0,0,1,.428.4,5.116,5.116,0,0,1,.072.8c0,.319-.01.652-.032,1-.017.331-.024.663-.021,1l0,.4a2.708,2.708,0,0,1,.784-.75,1.706,1.706,0,0,1,.885-.247,1.063,1.063,0,0,1,1.018.492,2.7,2.7,0,0,1,.224,1.167l.035.871.09.948a9.458,9.458,0,0,0,.151.938.654.654,0,0,1,.018.132.41.41,0,0,1-.134.313.452.452,0,0,1-.321.126Z" transform="translate(-169.921 -360.37)" fill="#131510" fill-rule="evenodd"/>
    </g>
    <g id="bx-registered" transform="translate(295.465 116.678)">
      <path id="Path_2879" data-name="Path 2879" d="M7.3,2A5.034,5.034,0,0,0,2.14,6.9,5.034,5.034,0,0,0,7.3,11.8a5.034,5.034,0,0,0,5.157-4.9A5.034,5.034,0,0,0,7.3,2Zm0,8.823A4.027,4.027,0,0,1,3.171,6.9,4.027,4.027,0,0,1,7.3,2.98,4.027,4.027,0,0,1,11.422,6.9,4.027,4.027,0,0,1,7.3,10.823Z" transform="translate(-2.14 -2)"/>
      <path id="Path_2880" data-name="Path 2880" d="M12.265,8.471A1.51,1.51,0,0,0,10.718,7H8.14v4.9H9.171V9.941h.753L11.3,11.9h1.238L11.12,9.882A1.485,1.485,0,0,0,12.265,8.471Zm-1.547.49H9.171V7.98h1.547a.491.491,0,1,1,0,.98Z" transform="translate(-5.046 -4.549)"/>
    </g>
  </g>
</svg>
